# xmcd
#
# Track frame offsets:
#	150
#	11962
#	29352
#	43210
#	61332
#	77355
#	89122
#	108028
#	121286
#	136620
#	151604
#	165498
#
# Disc length: 2387 seconds
#
# Revision: 0
# Processed by: cddbd v1.4PL0 Copyright (c) Steve Scherf et al.
# Submitted via: dBpowerAMP V4.0
#
DISCID=8a09510c
DTITLE=BILLY JOE ROYAL - STAY CLOSE TO HOME
DYEAR=1900
DGENRE=
TTITLE0=Down In The Boondocks
TTITLE1=Stay Close To Home
TTITLE2=Tell It Like It Is
TTITLE3=Till I Can't Take It Anymore
TTITLE4=She's Making A Comeback 
TTITLE5=I Knew You When
TTITLE6=I'll Pin A Note On Your Pillow
TTITLE7=Hush
TTITLE8=One Too Many
TTITLE9=Love Has No Right
TTITLE10=Baby Have Mercy On You
TTITLE11=It Keeps Right On Hurtin'
EXTD=
EXTT0=
EXTT1=
EXTT2=
EXTT3=
EXTT4=
EXTT5=
EXTT6=
EXTT7=
EXTT8=
EXTT9=
EXTT10=
EXTT11=
PLAYORDER=
